<svg id="Layer_1" data-name="Layer 1" xmlns="http://www.w3.org/2000/svg" viewBox="0 0 428 116"><defs><style>.cls-1{fill:#424143;}.cls-2{fill:#750f21;}.cls-3{fill:#8c6431;}</style></defs><path class="cls-1" d="M161.22,55.52a19.86,19.86,0,0,1-6,5.64,15.07,15.07,0,0,1-7.35,1.65h-.58a4.06,4.06,0,0,1-2.95-.87,4.07,4.07,0,0,1-.87-3V51h2.79a5,5,0,0,1,3.64,1.14A6.48,6.48,0,0,1,151.29,56h1.33V44.36h-1.33c-.19,2-.63,3.24-1.3,3.89s-1.93,1-3.77,1h-2.79V42.84a3.7,3.7,0,0,1,.83-2.69,3.69,3.69,0,0,1,2.69-.83h1.69a13.65,13.65,0,0,1,11.26,5.9l1.31-.53-1.35-3.51-1.34-3.51H135.94v1.17l.53,0a3.21,3.21,0,0,1,2.42.92,5.1,5.1,0,0,1,.62,3V59.37a5.1,5.1,0,0,1-.62,3,3.21,3.21,0,0,1-2.42.92l-.53,0v1.17h23l1.8-4.19,1.79-4.17Z"/><path class="cls-1" d="M190.68,63.23a3.75,3.75,0,0,1-2.27-1,8.69,8.69,0,0,1-1.63-2.89l-8.4-21.7h-3.65l-8.39,21.7a7.93,7.93,0,0,1-1.7,2.88,4.25,4.25,0,0,1-2.53,1l-.48.06v1.17h10.5V63.29l-.73-.1q-2.39-.28-2.85-1.35c-.3-.71-.11-2,.58-3.84l1.3-3.51h10.28l1.76,4.88c.52,1.41.61,2.37.29,2.9s-1.19.84-2.63,1l-.65.06v1.17h11.63V63.29Zm-19.6-10.47,4.55-12.23v0h0v0l4.47,12.23Z"/><path class="cls-1" d="M209.61,51.74v1.17l.6.08a3.9,3.9,0,0,1,2.55,1.13,3.4,3.4,0,0,1,.72,1.77,6,6,0,0,1-.09,1.86,5.64,5.64,0,0,1-.61,1.73,8.59,8.59,0,0,1-.72,1.06,8,8,0,0,1-6.47,2.63h0a8.1,8.1,0,0,1-6.67-3.35,13.89,13.89,0,0,1-2.59-8.74,14.81,14.81,0,0,1,2.39-8.76A7.31,7.31,0,0,1,204.9,39a9,9,0,0,1,5.39,1.87,20.43,20.43,0,0,1,5,5.64l1.49-.42-2.41-8.36H213.1l-.75,1.88-.08,0A12.32,12.32,0,0,0,204.61,37a12.19,12.19,0,0,0-9.3,4,14.26,14.26,0,0,0-3.74,10,13.74,13.74,0,0,0,4,10,13.24,13.24,0,0,0,9.83,4,12.16,12.16,0,0,0,8.62-3.4l1.29,2.73h1.86V56.83a5.49,5.49,0,0,1,.58-3,2.78,2.78,0,0,1,2.22-.89l.5,0V51.74Z"/><path class="cls-1" d="M245,55.62a19.23,19.23,0,0,1-5.2,5.48A10.39,10.39,0,0,1,233.92,63h-.39a3.79,3.79,0,0,1-2.73-.79,3.81,3.81,0,0,1-.78-2.73V42.76a5.05,5.05,0,0,1,.62-3,3.2,3.2,0,0,1,2.41-.9l.54,0V37.67H222.52v1.17l.54,0a3.19,3.19,0,0,1,2.41.92,5,5,0,0,1,.63,3V59.37a5,5,0,0,1-.63,3,3.19,3.19,0,0,1-2.41.92l-.54,0v1.17h20.33l1.6-4.17L246,56.12Z"/><path class="cls-1" d="M271.43,55.52a20,20,0,0,1-6.05,5.64A15.07,15.07,0,0,1,258,62.81h-.57a4.07,4.07,0,0,1-3-.87,4.07,4.07,0,0,1-.87-3V51h2.79a5,5,0,0,1,3.65,1.14A6.54,6.54,0,0,1,261.49,56h1.33V44.36h-1.33c-.19,2-.63,3.24-1.3,3.89s-1.93,1-3.77,1h-2.79V42.84a3.7,3.7,0,0,1,.83-2.69,3.7,3.7,0,0,1,2.69-.83h1.69a13.45,13.45,0,0,1,6.38,1.57,13.29,13.29,0,0,1,4.88,4.33l1.31-.53-1.35-3.51-1.34-3.51H246.14v1.17l.54,0a3.21,3.21,0,0,1,2.41.92,5.1,5.1,0,0,1,.62,3V59.37a5.1,5.1,0,0,1-.62,3,3.21,3.21,0,0,1-2.41.92l-.54,0v1.17h23l1.81-4.19,1.78-4.17Z"/><path class="cls-1" d="M296.91,55.62a19.23,19.23,0,0,1-5.2,5.48A10.39,10.39,0,0,1,285.88,63h-.39a3.79,3.79,0,0,1-2.73-.79,3.81,3.81,0,0,1-.78-2.73V42.76a5.05,5.05,0,0,1,.62-3,3.2,3.2,0,0,1,2.41-.9l.54,0V37.67H274.48v1.17l.54,0a3.21,3.21,0,0,1,2.41.92,5,5,0,0,1,.63,3V59.37a5,5,0,0,1-.63,3,3.21,3.21,0,0,1-2.41.92l-.54,0v1.17h20.33l1.6-4.17L298,56.12Z"/><path class="cls-1" d="M306,39.8a2.9,2.9,0,0,1,2.26-.92l.5,0V37.67H298.1v1.17l.5,0a2.93,2.93,0,0,1,2.26.92,5.33,5.33,0,0,1,.58,3V59.37a5.43,5.43,0,0,1-.57,3,3,3,0,0,1-2.27.92l-.5,0v1.17h10.61V63.29l-.5,0a2.9,2.9,0,0,1-2.26-.92,5.31,5.31,0,0,1-.59-3V42.76A5.31,5.31,0,0,1,306,39.8Z"/><path class="cls-1" d="M336.06,41a14.06,14.06,0,0,0-24.07,10,14,14,0,1,0,28.09,0A13.69,13.69,0,0,0,336.06,41Zm-3.21,18.89a8.77,8.77,0,0,1-13.61,0q-2.5-3.23-2.5-8.85t2.5-8.87a8.75,8.75,0,0,1,13.61,0q2.49,3.24,2.49,8.87T332.85,59.93Z"/><path class="cls-1" d="M360.53,37.67v1.17l.58,0a3.61,3.61,0,0,1,2.61.92,4.75,4.75,0,0,1,.67,3V59.35l-13-21.68h-8.59v1.17l.52,0a3.12,3.12,0,0,1,2.37.92,5.19,5.19,0,0,1,.61,3V59.37a5.1,5.1,0,0,1-.62,3,3.21,3.21,0,0,1-2.42.92l-.53,0v1.17h9.62V63.29l-.57,0a3.62,3.62,0,0,1-2.62-.92,4.75,4.75,0,0,1-.67-3V40.42l14.64,24h3.42V42.76a5,5,0,0,1,.63-3,3.19,3.19,0,0,1,2.41-.92l.54,0V37.67Z"/><path class="cls-1" d="M137.94,75.55a.75.75,0,0,0,.26.28,1.74,1.74,0,0,0,.51.24c.22.07.49.15.83.23a8,8,0,0,1,1,.31,2.41,2.41,0,0,1,.71.41,1.79,1.79,0,0,1,.43.57,2,2,0,0,1,.14.77,2.11,2.11,0,0,1-.18.89,1.84,1.84,0,0,1-.51.66,2.2,2.2,0,0,1-.79.41,3.52,3.52,0,0,1-1,.14,4.51,4.51,0,0,1-1.55-.27,4.4,4.4,0,0,1-1.37-.85l.74-.88a4.3,4.3,0,0,0,1,.67,2.8,2.8,0,0,0,1.18.24,1.56,1.56,0,0,0,.91-.24.77.77,0,0,0,.33-.65.9.9,0,0,0-.06-.34.88.88,0,0,0-.24-.28,2.16,2.16,0,0,0-.48-.23c-.21-.07-.47-.15-.8-.23a8.14,8.14,0,0,1-1-.29,2.66,2.66,0,0,1-.73-.4,1.5,1.5,0,0,1-.45-.58,1.89,1.89,0,0,1-.16-.83,1.9,1.9,0,0,1,.67-1.48,2.28,2.28,0,0,1,.75-.42,3.32,3.32,0,0,1,1-.14,4.27,4.27,0,0,1,1.39.22,4,4,0,0,1,1.15.66l-.66.93a4.59,4.59,0,0,0-.95-.54,2.62,2.62,0,0,0-1-.18,1.31,1.31,0,0,0-.84.24.77.77,0,0,0-.3.6A1,1,0,0,0,137.94,75.55Z"/><path class="cls-1" d="M153.24,80.36H152V77.6l-2.78-4.24h1.45l2,3.1,2-3.1H156l-2.78,4.21Z"/><path class="cls-1" d="M164.85,75.55a.75.75,0,0,0,.26.28,1.74,1.74,0,0,0,.51.24c.22.07.49.15.83.23a8,8,0,0,1,1,.31,2.41,2.41,0,0,1,.71.41,1.79,1.79,0,0,1,.43.57,2,2,0,0,1,.14.77,2.11,2.11,0,0,1-.18.89,1.84,1.84,0,0,1-.51.66,2.2,2.2,0,0,1-.79.41,3.52,3.52,0,0,1-1,.14,4.51,4.51,0,0,1-1.55-.27,4.4,4.4,0,0,1-1.37-.85l.74-.88a4.3,4.3,0,0,0,1,.67,2.8,2.8,0,0,0,1.18.24,1.56,1.56,0,0,0,.91-.24.77.77,0,0,0,.33-.65.9.9,0,0,0-.06-.34.88.88,0,0,0-.24-.28,2.16,2.16,0,0,0-.48-.23c-.21-.07-.47-.15-.8-.23a8.14,8.14,0,0,1-1-.29,2.66,2.66,0,0,1-.73-.4,1.5,1.5,0,0,1-.45-.58,1.89,1.89,0,0,1-.16-.83,1.9,1.9,0,0,1,.67-1.48,2.28,2.28,0,0,1,.75-.42,3.32,3.32,0,0,1,1-.14,4.27,4.27,0,0,1,1.39.22,4,4,0,0,1,1.15.66l-.66.93a4.59,4.59,0,0,0-.95-.54,2.62,2.62,0,0,0-1-.18,1.31,1.31,0,0,0-.84.24.77.77,0,0,0-.3.6A1,1,0,0,0,164.85,75.55Z"/><path class="cls-1" d="M180,80.36h-1.24V74.5H176.5V73.36h5.68V74.5H180Z"/><path class="cls-1" d="M195.66,74.47h-4v1.8h3.51v1.11H191.7v1.87h4v1.11h-5.23v-7h5.18Z"/><path class="cls-1" d="M207.63,78.64h0l-2.19-3.28v5h-1.22v-7h1.31l2.13,3.31,2.13-3.31h1.31v7h-1.22v-5Z"/><path class="cls-1" d="M232.82,80.36h-1.24V74.5h-2.22V73.36H235V74.5h-2.22Z"/><path class="cls-1" d="M248.52,74.47h-4v1.8h3.51v1.11h-3.51v1.87h4v1.11h-5.23v-7h5.18Z"/><path class="cls-1" d="M262.57,79.75a4.6,4.6,0,0,1-.64.4,3.78,3.78,0,0,1-.74.25,4.94,4.94,0,0,1-.9.08,3.51,3.51,0,0,1-2.54-1,3.58,3.58,0,0,1-.75-1.15,3.84,3.84,0,0,1,0-2.83,3.43,3.43,0,0,1,.74-1.16,3.67,3.67,0,0,1,1.14-.78,3.84,3.84,0,0,1,1.46-.28,4.79,4.79,0,0,1,.88.08,3.79,3.79,0,0,1,.72.22,3.6,3.6,0,0,1,.61.35,3.75,3.75,0,0,1,.53.44l-.79.91a3.8,3.8,0,0,0-.89-.63,2.3,2.3,0,0,0-2.73.48,2.74,2.74,0,0,0-.48.79,2.85,2.85,0,0,0,0,1.94,2.66,2.66,0,0,0,.48.8,2.29,2.29,0,0,0,1.66.73,2.32,2.32,0,0,0,1.1-.24,4.52,4.52,0,0,0,.91-.67l.79.8A4.38,4.38,0,0,1,262.57,79.75Z"/><path class="cls-1" d="M272.64,77.41v3h-1.22v-7h1.22v2.91H276V73.36h1.22v7H276v-3Z"/><path class="cls-1" d="M290.9,73.36h1.22v7h-1l-3.85-5v5H286v-7h1.14l3.74,4.84Z"/><path class="cls-1" d="M307.66,78.25a3.44,3.44,0,0,1-.76,1.15,3.51,3.51,0,0,1-1.16.79,3.92,3.92,0,0,1-3,0,3.52,3.52,0,0,1-1.15-.77,3.58,3.58,0,0,1-.75-1.15,3.76,3.76,0,0,1,0-2.8,3.76,3.76,0,0,1,.76-1.16,3.7,3.7,0,0,1,1.16-.78,3.76,3.76,0,0,1,1.48-.29,3.9,3.9,0,0,1,1.48.28,3.44,3.44,0,0,1,1.15.78,3.58,3.58,0,0,1,.75,1.15,3.76,3.76,0,0,1,0,2.8Zm-1.19-2.35a2.56,2.56,0,0,0-.49-.79,2.19,2.19,0,0,0-.76-.54,2.32,2.32,0,0,0-1-.2,2.48,2.48,0,0,0-.95.19,2.37,2.37,0,0,0-.75.53,2.54,2.54,0,0,0-.48.79,2.65,2.65,0,0,0-.18,1,2.56,2.56,0,0,0,.18,1,2.33,2.33,0,0,0,.49.8,2.25,2.25,0,0,0,.75.54,2.39,2.39,0,0,0,1,.2,2.32,2.32,0,0,0,1-.2,2.2,2.2,0,0,0,.74-.52,2.56,2.56,0,0,0,.49-.79,2.85,2.85,0,0,0,0-1.94Z"/><path class="cls-1" d="M316.42,73.36h1.22v5.89h3.68v1.11h-4.9Z"/><path class="cls-1" d="M336,78.25a3.44,3.44,0,0,1-.76,1.15,3.51,3.51,0,0,1-1.16.79,3.92,3.92,0,0,1-3,0,3.42,3.42,0,0,1-1.15-.77,3.58,3.58,0,0,1-.75-1.15,3.76,3.76,0,0,1,0-2.8,3.76,3.76,0,0,1,.76-1.16,3.7,3.7,0,0,1,1.16-.78,3.76,3.76,0,0,1,1.48-.29,3.9,3.9,0,0,1,1.48.28,3.44,3.44,0,0,1,1.15.78,3.58,3.58,0,0,1,.75,1.15,3.76,3.76,0,0,1,0,2.8Zm-1.19-2.35a2.56,2.56,0,0,0-.49-.79,2.29,2.29,0,0,0-.76-.54,2.32,2.32,0,0,0-1-.2,2.48,2.48,0,0,0-.95.19,2.37,2.37,0,0,0-.75.53,2.54,2.54,0,0,0-.48.79,2.65,2.65,0,0,0-.18,1,2.56,2.56,0,0,0,.18,1,2.33,2.33,0,0,0,.49.8,2.25,2.25,0,0,0,.75.54,2.36,2.36,0,0,0,1,.2,2.32,2.32,0,0,0,1-.2,2.2,2.2,0,0,0,.74-.52,2.56,2.56,0,0,0,.49-.79,2.85,2.85,0,0,0,0-1.94Z"/><path class="cls-1" d="M350.38,79.81a4.41,4.41,0,0,1-1.47.59,5,5,0,0,1-.88.08,4,4,0,0,1-1.49-.27,3.43,3.43,0,0,1-1.88-1.91,4,4,0,0,1-.26-1.43,3.67,3.67,0,0,1,.27-1.4,3.54,3.54,0,0,1,.74-1.16,3.44,3.44,0,0,1,1.15-.78,3.64,3.64,0,0,1,1.45-.29,5.35,5.35,0,0,1,.84.06,4.32,4.32,0,0,1,.69.19,4.27,4.27,0,0,1,.61.29,5.23,5.23,0,0,1,.55.41l-.78.93a4,4,0,0,0-.41-.31,3.75,3.75,0,0,0-.44-.24,3.27,3.27,0,0,0-.5-.15,3.86,3.86,0,0,0-.61,0,2,2,0,0,0-.89.2,2.11,2.11,0,0,0-.72.53,2.36,2.36,0,0,0-.48.79,2.58,2.58,0,0,0-.18,1,3,3,0,0,0,.17,1,2.29,2.29,0,0,0,.49.79,2.22,2.22,0,0,0,.75.53,2.33,2.33,0,0,0,1,.19,2.85,2.85,0,0,0,.94-.15,2.41,2.41,0,0,0,.75-.38V77.52H348V76.45h3v2.94A4.2,4.2,0,0,1,350.38,79.81Z"/><path class="cls-1" d="M362.55,80.36h-1.24V77.6l-2.78-4.24H360l2,3.1,2-3.1h1.41l-2.78,4.21Z"/><path class="cls-2" d="M379.55,34.29a1.24,1.24,0,0,0,.54-.38,1.09,1.09,0,0,0,.21-.69,1,1,0,0,0-.37-.84,1.54,1.54,0,0,0-1-.3h-1.53v3.45h.76V34.42h.6l.74,1.11h.89Zm-.18-.67a.6.6,0,0,1-.44.14h-.76v-1h.74a.73.73,0,0,1,.45.12.47.47,0,0,1,.16.39A.46.46,0,0,1,379.37,33.62Zm.18.67a1.24,1.24,0,0,0,.54-.38,1.09,1.09,0,0,0,.21-.69,1,1,0,0,0-.37-.84,1.54,1.54,0,0,0-1-.3h-1.53v3.45h.76V34.42h.6l.74,1.11h.89Zm-.18-.67a.6.6,0,0,1-.44.14h-.76v-1h.74a.73.73,0,0,1,.45.12.47.47,0,0,1,.16.39A.46.46,0,0,1,379.37,33.62Zm2.37-1a3.13,3.13,0,0,0-.68-1,3.35,3.35,0,0,0-1-.7,3.21,3.21,0,0,0-1.28-.25,3.09,3.09,0,0,0-1.28.26,3.3,3.3,0,0,0-1.73,1.74,3.33,3.33,0,0,0-.25,1.26,3.28,3.28,0,0,0,.25,1.25,3.37,3.37,0,0,0,.69,1,3.21,3.21,0,0,0,1,.69,3.26,3.26,0,0,0,4.28-4.26ZM381.4,35a3,3,0,0,1-.61.92,2.86,2.86,0,0,1-2.06.85,2.85,2.85,0,0,1-1.13-.22,2.77,2.77,0,0,1-.91-.62,2.9,2.9,0,0,1-.61-.92,3,3,0,0,1-.21-1.12,2.85,2.85,0,0,1,.22-1.13,2.9,2.9,0,0,1,.61-.92,2.77,2.77,0,0,1,.91-.62,2.7,2.7,0,0,1,1.14-.23,2.8,2.8,0,0,1,2.05.84,3,3,0,0,1,.6.91,3,3,0,0,1,0,2.26Zm-1.31-1.11a1.09,1.09,0,0,0,.21-.69,1,1,0,0,0-.37-.84,1.54,1.54,0,0,0-1-.3h-1.53v3.45h.76V34.42h.6l.74,1.11h.89l-.85-1.24A1.24,1.24,0,0,0,380.09,33.91Zm-.72-.29a.6.6,0,0,1-.44.14h-.76v-1h.74a.73.73,0,0,1,.45.12.47.47,0,0,1,.16.39A.46.46,0,0,1,379.37,33.62Z"/><path class="cls-1" d="M67.38,62.17l2.18-2.83H65Z"/><path class="cls-1" d="M61.89,47.53h4.77l-1.77,2.11A2,2,0,0,0,65,52.05c1,1,6,3.29,6,3.29s.87.49,2.39-.81l-1.55,2.24-5.91-2a2.49,2.49,0,0,0-2.32.47c-.83.85-1,1.1-1,1.16l-.72-1.68,1.56-2.37a2.2,2.2,0,0,0-.2-3.09C61.72,47.53,61.89,47.53,61.89,47.53Z"/><polygon class="cls-1" points="64.35 42.96 64.71 40.46 66.64 40.46 64.35 42.96"/><polygon class="cls-1" points="71.33 43.45 73 40.15 78.88 40.13 71.33 43.45"/><path class="cls-3" d="M98.72,61.53C96.88,74.26,86.77,78.27,76,81.2a32.86,32.86,0,0,0-7,2.69l-.52.28-.95.56c-.23.15-.46.28-.68.43a17.79,17.79,0,0,0-7.16,8.29l-.1.26c0,.1-.06.19-.09.27a.9.9,0,0,0,0,.19c0,.1-.05.15-.05.15-1.42-1.55-1.08-4-.5-5.87A15.53,15.53,0,0,1,60,85.9a2.17,2.17,0,0,1-.89-1.14c-.66-2,1.13-5.49,2.44-7.6.12-.2.23-.39.35-.57l.37-.57c.12-.18.21-.33.3-.44l.15-.21v0c3.57-5,9.63-9.29,17.73-16.1,15.17-12.74,6.17-26.88,5.52-27.87,16.93,17.55-3.64,37.88-3.64,37.88,16.35-7.33,14.46-21.74,14.35-22.55C96.85,47.38,99.48,56.29,98.72,61.53Z"/><path class="cls-2" d="M56.59,77.06a30.33,30.33,0,0,1-6.67-8.54,31.34,31.34,0,0,1-3.29-10.41,29.71,29.71,0,0,1-.15-5.5c0-.46,0-.92.08-1.38l.19-1.36L47,48.5c.08-.45.21-.9.31-1.35a31.38,31.38,0,0,1,52.88-14.68,30.93,30.93,0,0,1,6.26,9.17,31.92,31.92,0,0,1,2.66,10.77l.06,1.39a9.21,9.21,0,0,1,0,1.39c0,.93-.1,1.85-.16,2.78l-.46,2.74c-.17.91-.46,1.79-.69,2.69a31.57,31.57,0,0,1-13,17.3,31,31,0,0,1-20.93,4.47,26.34,26.34,0,0,0,5.4,0l1.34-.09c.45,0,.89-.15,1.33-.22a21.14,21.14,0,0,0,2.63-.54,29.4,29.4,0,0,0,9.7-4.4A30.46,30.46,0,0,0,106.39,63c.19-.86.44-1.71.59-2.58l.37-2.61.11-2.64a9.57,9.57,0,0,0,0-1.31l-.08-1.32a30.16,30.16,0,0,0-2.63-10.13,29.67,29.67,0,0,0-5.94-8.6,30.3,30.3,0,0,0-8.55-6A29.76,29.76,0,0,0,69.75,26,30.4,30.4,0,0,0,52.84,37.86a29.94,29.94,0,0,0-4.39,9.59c-.11.43-.25.85-.34,1.28L47.89,50l-.21,1.32c-.08.43-.07.88-.11,1.32L47.48,54l0,.67v.66c0,.89.07,1.78.13,2.67a30.36,30.36,0,0,0,2.8,10.28A32,32,0,0,0,56.59,77.06Z"/></svg>